<svg xmlns="http://www.w3.org/2000/svg" viewBox="0 0 48 48"><title>17-calculator</title><g id="_17-calculator" data-name="17-calculator"><path d="M43,48H23a5.006,5.006,0,0,1-5-5V21a5.006,5.006,0,0,1,5-5H43a5.006,5.006,0,0,1,5,5V43A5.006,5.006,0,0,1,43,48ZM23,18a3,3,0,0,0-3,3V43a3,3,0,0,0,3,3H43a3,3,0,0,0,3-3V21a3,3,0,0,0-3-3Z"/><path d="M27,35H23a1,1,0,0,1-1-1V30a1,1,0,0,1,1-1h4a1,1,0,0,1,1,1v4A1,1,0,0,1,27,35Zm-3-2h2V31H24Z"/><path d="M35,35H31a1,1,0,0,1-1-1V30a1,1,0,0,1,1-1h4a1,1,0,0,1,1,1v4A1,1,0,0,1,35,35Zm-3-2h2V31H32Z"/><path d="M43,35H39a1,1,0,0,1-1-1V30a1,1,0,0,1,1-1h4a1,1,0,0,1,1,1v4A1,1,0,0,1,43,35Zm-3-2h2V31H40Z"/><path d="M27,43H23a1,1,0,0,1-1-1V38a1,1,0,0,1,1-1h4a1,1,0,0,1,1,1v4A1,1,0,0,1,27,43Zm-3-2h2V39H24Z"/><path d="M35,43H31a1,1,0,0,1-1-1V38a1,1,0,0,1,1-1h4a1,1,0,0,1,1,1v4A1,1,0,0,1,35,43Zm-3-2h2V39H32Z"/><path d="M43,43H39a1,1,0,0,1-1-1V38a1,1,0,0,1,1-1h4a1,1,0,0,1,1,1v4A1,1,0,0,1,43,43Zm-3-2h2V39H40Z"/><rect x="19" y="24" width="25" height="2"/><rect x="22" y="20" width="2" height="2"/><rect x="26" y="20" width="6" height="2"/><path d="M16,22H3a3,3,0,0,1-3-3V3A3,3,0,0,1,3,0H35a3,3,0,0,1,3,3V14H36V3a1,1,0,0,0-1-1H3A1,1,0,0,0,2,3V19a1,1,0,0,0,1,1H16Z"/><path d="M16,18H7a1,1,0,0,1-1-1,1,1,0,0,0-1-1,1,1,0,0,1-1-1V7A1,1,0,0,1,5,6,1,1,0,0,0,6,5,1,1,0,0,1,7,4H31a1,1,0,0,1,1,1,1,1,0,0,0,1,1,1,1,0,0,1,1,1v7H32V7.829A3.016,3.016,0,0,1,30.171,6H7.829A3.016,3.016,0,0,1,6,7.829v6.342A3.016,3.016,0,0,1,7.829,16H16Z"/><path d="M16,26H7a3,3,0,0,1-3-3V21H6v2a1,1,0,0,0,1,1h9Z"/><path d="M16,30H10a3,3,0,0,1-3-3V25H9v2a1,1,0,0,0,1,1h6Z"/><path d="M19,14a3,3,0,1,1,3-3A3,3,0,0,1,19,14Zm0-4a1,1,0,1,0,1,1A1,1,0,0,0,19,10Z"/></g></svg>